<?xml version="1.0" encoding="UTF-8"?>
<svg xmlns="http://www.w3.org/2000/svg" width="128" height="128" viewBox="0 0 128 128" fill="none">
  <defs>
    <linearGradient id="flameOuter" x1="64" y1="12" x2="64" y2="116" gradientUnits="userSpaceOnUse">
      <stop offset="0" stop-color="#FFE35E"/>
      <stop offset="0.42" stop-color="#FF9923"/>
      <stop offset="0.78" stop-color="#DE4313"/>
      <stop offset="1" stop-color="#8F141A"/>
    </linearGradient>
    <linearGradient id="flameInner" x1="64" y1="28" x2="64" y2="112" gradientUnits="userSpaceOnUse">
      <stop offset="0" stop-color="#FFF6CC"/>
      <stop offset="0.55" stop-color="#FFD25B"/>
      <stop offset="1" stop-color="#FF7A1A"/>
    </linearGradient>
    <filter id="softGlow" x="-30%" y="-30%" width="160%" height="160%">
      <feGaussianBlur stdDeviation="2.6" result="blur"/>
      <feColorMatrix in="blur" type="matrix" values="1 0 0 0 0  0 1 0 0 0  0 0 1 0 0  0 0 0 0.32 0" result="glow"/>
      <feMerge>
        <feMergeNode in="glow"/>
        <feMergeNode in="SourceGraphic"/>
      </feMerge>
    </filter>
  </defs>
  <g filter="url(#softGlow)">
    <path d="M63.9 10.8c-8.8 13.3-15.7 23.6-15.7 35.3 0 6.3 2.1 11.3 5.2 15.6-12.2 5.6-21 17.7-21 31.8 0 20.7 14.9 34.7 31.5 34.7 17 0 31.6-13.6 31.6-33.8 0-12.8-6-22.2-13.8-30.1-5.6-5.7-10.3-11.7-10.3-20.2 0-4.6 1.3-9.6 4.1-15.3-6.7 3.4-10.4 8.2-12.7 13.3-1.9-7.7 0.1-16 1.1-31.3z"
          fill="url(#flameOuter)"/>
    <path d="M68.7 41.2c-5.1 6.6-8.2 12.8-8.2 19.4 0 4.1 1.2 7.6 3.1 10.5-7.5 3.3-12.9 10.8-12.9 19.8 0 12.6 9 21.3 19.2 21.3 10.6 0 19.2-8.6 19.2-20.9 0-7.7-3.6-13.4-8.2-18.3-3.3-3.6-6.2-7.1-6.2-12.2 0-2.7 0.7-5.7 2.2-9.1-3.9 2.1-6.2 4.9-7.6 8.1-0.9-4.1-0.3-8 1.4-18.6z"
          fill="url(#flameInner)" opacity="0.96"/>
    <path d="M63.9 10.8c-8.8 13.3-15.7 23.6-15.7 35.3 0 6.3 2.1 11.3 5.2 15.6-12.2 5.6-21 17.7-21 31.8 0 20.7 14.9 34.7 31.5 34.7 17 0 31.6-13.6 31.6-33.8 0-12.8-6-22.2-13.8-30.1-5.6-5.7-10.3-11.7-10.3-20.2 0-4.6 1.3-9.6 4.1-15.3-6.7 3.4-10.4 8.2-12.7 13.3-1.9-7.7 0.1-16 1.1-31.3z"
          stroke="rgba(255,255,255,0.30)" stroke-width="3" stroke-linejoin="round"/>
  </g>
</svg>
